<svg width="56" height="56" fill="none" xmlns="http://www.w3.org/2000/svg"><path fill-rule="evenodd" clip-rule="evenodd" d="M28 0c15.464 0 28 12.536 28 28S43.464 56 28 56 0 43.464 0 28 12.536 0 28 0zm4.564 29.867c-.205-.19-.328-.193-.535-.006-.614.55-1.248 1.079-1.876 1.613-1.485 1.263-3.519 1.25-4.98-.023-.62-.541-1.26-1.063-1.88-1.607-.173-.153-.28-.157-.454.004-3.03 2.793-6.065 5.58-9.097 8.371-.076.07-.205.12-.17.281H41.78c-.024-.162-.124-.212-.197-.279-.907-.84-1.817-1.677-2.724-2.516-2.1-1.944-4.202-3.886-6.295-5.838zM44.022 19.69c-.075-.033-.133.01-.186.063l-.062.066-.03.03c-3.097 2.65-6.189 5.306-9.292 7.948-.262.222-.23.33-.003.537 2.015 1.85 4.02 3.71 6.029 5.565 1.058.978 2.122 1.952 3.177 2.935.197.184.289.17.36-.093.071-.268.077-.538.077-.81v-7.795c0-2.712 0-5.424-.003-8.136 0-.107.051-.257-.067-.31zm-32.658.003l-.05.016c-.18.095-.093.457-.093.703-.003 2.575-.002 5.15-.002 7.726 0 2.473-.002 4.946.003 7.42 0 .328.02.657.058.983.017.148.017.359.182.408.129.038.223-.137.321-.227 3.05-2.803 6.095-5.61 9.15-8.408.212-.195.232-.299.002-.494-3.026-2.573-6.043-5.156-9.068-7.73-.177-.151-.37-.478-.553-.38l.05-.017zM27.661 17.5H13.81c-.241 0-.485-.003-.719.074-.084.027-.203.022-.223.127-.015.085.087.124.146.175.426.366.853.73 1.279 1.094 4.124 3.528 8.247 7.057 12.374 10.582.795.679 1.257.662 2.049-.016 4.216-3.614 8.434-7.226 12.651-10.838.38-.326.757-.653 1.154-.997-.34-.21-.676-.2-1.007-.2-9.234-.001-18.47-.001-27.704 0l13.852-.001z" fill="#fff"/></svg>