<svg width="56" height="56" fill="none" xmlns="http://www.w3.org/2000/svg"><path fill-rule="evenodd" clip-rule="evenodd" d="M28 0c15.464 0 28 12.536 28 28S43.464 56 28 56 0 43.464 0 28 12.536 0 28 0zm13.635 15.024c-.278.04-.627.038-.937.147-.746.261-1.474.572-2.207.87-.401.162-.796.341-1.197.504l-2.295.92c-.41.165-.815.343-1.223.512-.746.308-1.494.612-2.24.92-.4.167-.796.346-1.198.508l-1.754.695-1.245.528c-.615.25-1.235.484-1.85.733-.385.156-.762.332-1.148.489-.826.336-1.657.664-2.484.997-.347.14-.688.292-1.035.43-.798.318-1.598.63-2.396.946-.427.169-.853.34-1.278.512-.582.237-1.164.477-1.746.716-.4.164-.8.331-1.202.493-.749.302-1.5.601-2.25.9-.458.184-.919.362-1.375.55l-.446.184c-.518.216-1.024.455-1.454.83-.245.213-.461.457-.5.792-.044.38.25.884.636 1.042.408.167.833.293 1.254.428 1.071.343 2.14.693 3.216 1.018.75.226 1.512.418 2.269.623.69.186 1.382.212 2.09.088a4.027 4.027 0 001.62-.646c.767-.526 1.56-1.015 2.34-1.526.779-.51 1.553-1.029 2.33-1.543l1.966-1.304c.683-.454 1.367-.906 2.049-1.364.528-.355 1.05-.719 1.579-1.073.864-.579 1.723-1.167 2.602-1.724.628-.398 1.256-.802 2.005-.977.21-.05.425-.068.512.082a.654.654 0 01.014.552c-.214.396-.447.8-.754 1.125-.695.735-1.432 1.43-2.164 2.129-.905.863-1.818 1.718-2.735 2.57-1.233 1.145-2.476 2.28-3.708 3.426-.5.465-1.02.918-1.457 1.436-.36.426-.445.946-.186 1.497.176.373.445.658.758.9.71.548 1.435 1.078 2.16 1.608.382.28.772.553 1.167.817.695.464 1.396.921 2.097 1.379.673.439 1.349.872 2.021 1.311.57.372 1.126.761 1.704 1.118.52.32 1.045.638 1.597.895.45.21.946.327 1.42.487.59.197 1.18.187 1.723-.108.652-.354.99-.97 1.159-1.651.16-.646.228-1.314.333-1.973.051-.325.087-.653.14-.978.123-.74.253-1.48.377-2.22.046-.276.08-.553.126-.828.092-.54.197-1.079.282-1.62.088-.567.148-1.14.24-1.707.161-.992.34-1.98.504-2.972.053-.317.078-.638.13-.955.122-.733.26-1.463.377-2.196.088-.55.15-1.105.235-1.656.128-.834.266-1.666.396-2.5.079-.501.15-1.003.227-1.505.13-.868.267-1.736.392-2.605.055-.385.077-.775.133-1.16a1.9 1.9 0 00-.26-1.28c-.31-.518-.845-.608-1.456-.636z" fill="#fff"/></svg>