<svg width="56" height="56" viewBox="0 0 56 56" fill="none" xmlns="http://www.w3.org/2000/svg">
<path fill-rule="evenodd" clip-rule="evenodd" d="M28 0C43.464 0 56 12.536 56 28C56 43.464 43.464 56 28 56C12.536 56 0 43.464 0 28C0 12.536 12.536 0 28 0ZM32.1878 10.9268C27.0475 10.9268 23.5286 13.982 23.5286 19.5927V24.4275H17.7146V30.9832H23.5286V47.8049H30.4809V30.9832H36.2799L37.148 24.4275H30.4809V20.2418C30.4809 18.3437 31.0224 17.0502 33.8177 17.0502L37.3829 17.0487V11.1853C36.7661 11.1053 34.6498 10.9268 32.1878 10.9268Z" fill="white"/>
</svg>
